<?xml version="1.0" standalone="no"?>
<!DOCTYPE svg PUBLIC "-//W3C//DTD SVG 20010904//EN"
 "http://www.w3.org/TR/2001/REC-SVG-20010904/DTD/svg10.dtd">
<svg version="1.0" xmlns="http://www.w3.org/2000/svg"
 width="200.000000pt" height="15" viewBox="0 0 200.000000 200.000000"
 preserveAspectRatio="xMidYMid meet">

<g transform="translate(0.000000,200.000000) scale(0.100000,-0.100000)"
fill="#000000" stroke="none">
<path d="M888 1890 c-74 -13 -157 -39 -235 -75 -238 -110 -423 -334 -490 -594
-32 -129 -34 -298 -3 -426 78 -332 336 -588 676 -672 103 -25 314 -22 419 6
337 90 590 356 659 693 9 42 16 92 16 109 0 31 -1 31 -38 -27 -44 -67 -138
-158 -204 -197 -25 -14 -81 -38 -124 -53 -67 -24 -96 -28 -189 -28 -185 -1
-311 51 -441 179 -129 128 -185 263 -185 447 0 172 57 304 186 434 86 87 179
141 283 165 28 7 50 15 47 17 -25 25 -274 39 -377 22z"/>
<path d="M1814 1865 c-12 -19 -25 -25 -50 -25 -39 0 -40 -2 -18 -35 15 -24 15
-38 -1 -77 -6 -15 -3 -15 29 -6 32 10 40 9 66 -11 l30 -22 0 39 c0 32 5 41 32
57 l32 19 -34 11 c-26 8 -37 20 -45 43 -11 39 -19 40 -41 7z"/>
<path d="M1459 1395 l-24 -67 -70 -22 -70 -22 57 -39 57 -40 1 -78 0 -78 61
44 61 44 66 -24 c35 -13 66 -22 68 -20 2 2 -6 33 -18 69 l-22 66 42 55 c23 29
42 57 42 60 0 4 -33 7 -73 7 -69 0 -74 2 -89 28 -10 15 -28 40 -41 56 l-24 29
-24 -68z"/>
</g>
</svg>
