<?xml version="1.0" standalone="no"?>
<!DOCTYPE svg PUBLIC "-//W3C//DTD SVG 20010904//EN"
 "http://www.w3.org/TR/2001/REC-SVG-20010904/DTD/svg10.dtd">
<svg version="1.0" xmlns="http://www.w3.org/2000/svg"
 width="256.000000pt" height="224.000000pt" viewBox="0 0 256.000000 224.000000"
 preserveAspectRatio="xMidYMid meet">

<g transform="translate(0.000000,224.000000) scale(0.100000,-0.100000)"
fill="#41b883" stroke="none">
<path d="M400 1959 c-60 -27 -107 -74 -136 -134 l-24 -50 0 -655 c0 -637 1
-656 21 -700 27 -60 74 -107 134 -136 49 -23 56 -24 332 -24 l281 0 136 -131
136 -131 0 131 0 131 418 0 417 0 50 24 c60 29 107 76 134 136 20 44 21 63 21
700 l0 655 -24 50 c-29 60 -76 107 -136 134 -44 20 -62 21 -880 21 -818 0
-836 -1 -880 -21z m1030 -225 c113 -26 206 -79 296 -169 130 -130 187 -265
187 -445 0 -180 -57 -315 -187 -445 -136 -135 -281 -191 -471 -182 -168 8
-290 62 -411 182 -127 127 -188 270 -188 445 0 107 16 173 64 275 80 167 238
294 425 341 70 17 208 17 285 -2z"/>
<path d="M1191 1621 c-32 -32 -101 -152 -101 -175 0 -3 34 -6 75 -6 l75 0 0
110 c0 61 -2 110 -5 110 -3 0 -23 -18 -44 -39z"/>
<path d="M1320 1550 l0 -110 75 0 c42 0 75 4 75 10 0 44 -87 177 -131 201 -18
9 -19 4 -19 -101z"/>
<path d="M1013 1593 c-64 -40 -99 -68 -147 -121 l-30 -32 86 0 85 0 12 43 c7
23 25 66 41 95 15 28 25 52 21 52 -4 0 -35 -17 -68 -37z"/>
<path d="M1480 1626 c0 -2 11 -23 24 -47 13 -24 31 -65 41 -91 l18 -48 84 0
84 0 -28 34 c-54 66 -223 181 -223 152z"/>
<path d="M771 1305 c-12 -31 -24 -80 -27 -110 l-7 -55 110 0 110 0 7 73 c4 39
10 89 13 110 l6 37 -96 0 -96 0 -20 -55z"/>
<path d="M1065 1348 c-4 -11 -25 -178 -25 -200 0 -5 45 -8 100 -8 l100 0 0
110 0 110 -85 0 c-59 0 -87 -4 -90 -12z"/>
<path d="M1320 1250 l0 -110 101 0 102 0 -6 78 c-3 42 -9 92 -13 110 l-6 32
-89 0 -89 0 0 -110z"/>
<path d="M1584 1343 c4 -9 10 -59 13 -110 l6 -93 115 0 115 0 -6 53 c-3 28
-15 78 -27 110 l-21 57 -101 0 c-90 0 -99 -2 -94 -17z"/>
<path d="M740 1053 c1 -24 24 -103 42 -145 l20 -48 93 0 92 0 -7 43 c-4 23
-11 68 -15 100 l-6 57 -110 0 c-60 0 -109 -3 -109 -7z"/>
<path d="M1044 1038 c3 -13 8 -48 11 -78 12 -106 6 -100 101 -100 l84 0 0 100
0 100 -100 0 c-99 0 -100 0 -96 -22z"/>
<path d="M1320 960 l0 -101 88 3 87 3 11 65 c7 36 12 80 13 98 l1 32 -100 0
-100 0 0 -100z"/>
<path d="M1597 992 c-4 -38 -10 -83 -13 -101 l-7 -32 99 3 98 3 28 80 c42 122
47 115 -86 115 l-113 0 -6 -68z"/>
<path d="M876 758 c41 -47 179 -148 204 -148 3 0 -13 38 -35 85 l-40 84 -74 1
-74 0 19 -22z"/>
<path d="M1100 770 c0 -36 83 -160 121 -181 18 -9 19 -5 19 91 l0 100 -70 0
c-42 0 -70 -4 -70 -10z"/>
<path d="M1320 680 c0 -55 4 -100 9 -100 26 0 104 104 130 173 l11 27 -75 0
-75 0 0 -100z"/>
<path d="M1550 767 c0 -7 -16 -45 -35 -85 -19 -40 -32 -72 -29 -72 32 0 179
104 210 149 15 21 15 21 -65 21 -59 0 -81 -3 -81 -13z"/>
</g>
</svg>
